<svg id="Layer_1" data-name="Layer 1" xmlns="http://www.w3.org/2000/svg" viewBox="0 0 166.74 25.83"><defs><style>.cls-1,.cls-2{fill:#fff;}.cls-1{fill-rule:evenodd;}</style></defs><title>PI logo white (AZ)</title><path class="cls-1" d="M134.09,56c3.07,0,6.18-1.41,6.18-4.67,0-4.56-7.19-4.35-7.19-6.33,0-.82.8-1.39,2-1.39a7.8,7.8,0,0,1,3.51.8l1-2.62a8.09,8.09,0,0,0-4.65-1.14c-2.62,0-5.34,1.43-5.34,4.29,0,5,7.07,4.1,7.07,6.52,0,.9-.82,1.59-2.61,1.59a9.3,9.3,0,0,1-3.91-.9l-1,2.65a9.57,9.57,0,0,0,5,1.2" transform="translate(-37.47 -35.38)"/><rect class="cls-2" x="104.66" y="9.02" width="3.48" height="11.38"/><path class="cls-1" d="M166.8,56.05c3.6,0,6.22-2.12,6.22-6.11,0-3.82-1.86-6.16-6-6.16-3.71,0-6.13,2.38-6.13,6.27,0,3.67,2.08,6,5.94,6M167,53.2c-1.91,0-2.51-1.22-2.51-3.24s.54-3.35,2.47-3.35,2.44,1.44,2.44,3.33-.47,3.26-2.4,3.26" transform="translate(-37.47 -35.38)"/><path class="cls-1" d="M174.54,55.78H178V48.19a3.63,3.63,0,0,1,2.48-1,6,6,0,0,1,1.5.13l.45-2.82a5.13,5.13,0,0,0-1.54-.18A4,4,0,0,0,178,46.07V44.58h-3.43Z" transform="translate(-37.47 -35.38)"/><path class="cls-1" d="M189,56a12.23,12.23,0,0,0,3.31-.54L192,52.64a12,12,0,0,1-2.51.34c-1,0-1.29-.28-1.29-1.13V46.66h3.61V44h-3.61V41.64h-3.54V44h-1.71v2.63h1.71v5.4C184.64,55,186.22,56,189,56" transform="translate(-37.47 -35.38)"/><path class="cls-1" d="M197,55.88a5.5,5.5,0,0,0,3.23-1.28c.31,1,1.75,1.2,3.11,1.2.26,0,.53,0,.8,0l.12-2.6c-.64,0-1-.1-1-.47v-5c0-2.53-1.39-3.52-4.87-3.52a12.33,12.33,0,0,0-4.54.9l.68,2.49a13,13,0,0,1,3.35-.49c1.4,0,2,.29,2,1.27v.7H197.9c-2.22,0-4.81.58-4.81,3.42,0,2.24,1.4,3.39,3.86,3.39m.72-2.65c-.61,0-1.25-.29-1.25-.95,0-.82.74-1.15,1.75-1.17l1.68,0v1.76a7.11,7.11,0,0,1-2.18.4" transform="translate(-37.47 -35.38)"/><path class="cls-1" d="M159.71,47.06h-1.83c0,.25.13,1,.13,1.31,0,2.48-2.44,3.87-5.13,3.87a13.94,13.94,0,0,1-2.14-.18l0,1.11h3.07c3.31,0,5,1,5,3.55s-2,4.49-6,4.49-5.55-.89-5.55-3.09a3,3,0,0,1,1.62-2.26,1.9,1.9,0,0,1-.87-1.65,4.93,4.93,0,0,1,1.22-2.66,3.74,3.74,0,0,1-1.5-3.09c0-2.39,2-4.29,5.1-4.29a7.1,7.1,0,0,1,3.05.6l3.87-.29Zm-3.6,10.15h0c0-.84-.83-1.1-1.79-1.1h-3.7a3,3,0,0,0-.24,1.17c0,.79,1,1.37,3,1.37,1.5,0,2.7-.64,2.7-1.44m-1.37-8.88h0a1.91,1.91,0,1,0-3.81.08,1.72,1.72,0,0,0,1.93,1.75,1.82,1.82,0,0,0,1.88-1.83" transform="translate(-37.47 -35.38)"/><path class="cls-1" d="M152.87,43a4.44,4.44,0,0,0,3.64-1.9L155,39.82a3.17,3.17,0,0,1-2.09,1,3.47,3.47,0,0,1-2.17-1l-1.57,1.26A4.27,4.27,0,0,0,152.87,43" transform="translate(-37.47 -35.38)"/><polygon class="cls-2" points="3.75 8.25 3.75 3.75 11.07 3.75 11.07 11.06 9.41 11.06 5.38 7.02 5.17 6.83 3.75 8.25"/><polygon class="cls-2" points="0 12.79 5.17 7.61 10.35 12.79 9.18 13.96 3.19 13.96 3.19 15.98 0 12.79"/><polygon class="cls-2" points="3.75 21.84 8.25 21.83 7.02 20.6 6.82 20.41 11.07 16.16 11.07 14.51 3.75 14.51 3.75 21.84"/><polygon class="cls-2" points="12.79 25.58 7.62 20.41 12.79 15.23 13.96 16.4 13.96 22.4 15.98 22.4 12.79 25.58"/><polygon class="cls-2" points="21.84 21.83 14.52 21.83 14.52 14.51 16.17 14.51 20.21 18.56 20.41 18.75 20.61 18.56 21.84 17.33 21.84 21.83"/><polygon class="cls-2" points="25.58 12.79 20.41 17.96 15.23 12.79 16.4 11.63 22.4 11.63 22.4 9.6 25.58 12.79"/><polygon class="cls-2" points="21.84 3.75 21.84 11.07 14.52 11.06 14.52 9.41 18.56 5.37 18.76 5.17 18.56 4.98 17.33 3.75 21.84 3.75"/><polygon class="cls-2" points="17.97 5.17 12.79 10.35 11.62 9.18 11.62 3.19 9.61 3.19 12.79 0 17.97 5.17"/><path class="cls-2" d="M119.09,40.68h-5l-5.15,15.1h3.81l1.45-4.42H119l1.46,4.42h3.8Zm-4,8,1.53-5.8,1.54,5.8Z" transform="translate(-37.47 -35.38)"/><path class="cls-2" d="M101.12,44.59c0-.64.47-1.21,2-1.21a11.76,11.76,0,0,1,3.59.61l1.05-2.5a10.25,10.25,0,0,0-4.75-1c-2.69,0-5.46,1.25-5.46,4.14,0,5.09,7.22,4.43,7.22,6.87,0,.92-.84,1.47-2.67,1.47a11,11,0,0,1-4-.68l-1,2.59a9.65,9.65,0,0,0,4.39,1,4.73,4.73,0,0,1,.21,1.15c0,.74-1.09,1.16-1.63,1.48l1.22,2.12c1.36-.55,3.4-1.48,3.4-3.2a4.45,4.45,0,0,0-.47-1.72h0c2.37-.46,4.33-1.79,4.33-4.37,0-4.78-7.35-4.78-7.35-6.77" transform="translate(-37.47 -35.38)"/><path class="cls-2" d="M76.39,40.62h-6V55.75h3.7V51.47h1.13c4.58,0,7-2.5,7-5.48,0-3.38-2.47-5.37-5.92-5.37m-1.06,8H74.09V43.49h1.75a2.26,2.26,0,0,1,2.57,2.58c0,1.39-.81,2.55-3.08,2.55" transform="translate(-37.47 -35.38)"/><path class="cls-2" d="M86.36,40.68l-5.15,15.1H85l1.45-4.42h4.8l1.45,4.42h3.81l-5.15-15.1Zm1,8,1.54-5.8,1.54,5.8Z" transform="translate(-37.47 -35.38)"/></svg>